<svg width="22" height="20" viewBox="0 0 22 20" fill="none" xmlns="http://www.w3.org/2000/svg">
<path d="M21 1.39319V8.36837H1V1.39319C1 1.2432 1.06321 1.09935 1.17574 0.993284C1.28826 0.887222 1.44087 0.827637 1.6 0.827637H20.4C20.5591 0.827637 20.7117 0.887222 20.8243 0.993284C20.9368 1.09935 21 1.2432 21 1.39319V1.39319Z" stroke="white" stroke-width="1.5" stroke-linecap="round" stroke-linejoin="round"/>
<path d="M17 4.59814H18" stroke="white" stroke-width="1.5" stroke-linecap="round" stroke-linejoin="round"/>
<path d="M1 8.36816L1.79 10.8038C1.91507 11.19 2.16834 11.528 2.51254 11.7683C2.85674 12.0086 3.27369 12.1384 3.702 12.1385H5" stroke="white" stroke-width="1.5" stroke-linecap="round" stroke-linejoin="round"/>
<path d="M21 8.36816L20.21 10.8038C20.0849 11.19 19.8317 11.528 19.4875 11.7683C19.1433 12.0086 18.7263 12.1384 18.298 12.1385H17" stroke="white" stroke-width="1.5" stroke-linecap="round" stroke-linejoin="round"/>
<path d="M8.5 11.6675C8.5 11.6675 8.5 18.2656 5 18.2656" stroke="white" stroke-width="1.5" stroke-linecap="round" stroke-linejoin="round"/>
<path d="M13.5 11.6675C13.5 11.6675 13.5 18.2656 17 18.2656" stroke="white" stroke-width="1.5" stroke-linecap="round" stroke-linejoin="round"/>
<path d="M11 11.6675V18.2656" stroke="white" stroke-width="1.5" stroke-linecap="round" stroke-linejoin="round"/>
</svg>
