<svg width="20" height="20" viewBox="0 0 20 20" fill="none" xmlns="http://www.w3.org/2000/svg">
<path fill-rule="evenodd" clip-rule="evenodd" d="M16 6H18V2H16V6ZM13.51 20H0.49C0.22 20 0 19.78 0 19.5V18H14V19.5C14 19.78 13.78 20 13.51 20ZM16 13.89L15.6 13.47C14.5774 12.3886 14.0053 10.9583 14 9.47V0H20V9.51C20 10.97 19.46 12.38 18.47 13.45L18 13.97V18H20V20H16V13.89ZM5 14V12H9V14H13.5C13.78 14 14 14.22 14 14.5V15.5C14 15.78 13.78 16 13.5 16H0.5C0.22 16 0 15.78 0 15.5V14.5C0 14.22 0.22 14 0.5 14H5Z" fill="white"/>
</svg>
