<svg width="29" height="29" viewBox="0 0 29 29" fill="none" xmlns="http://www.w3.org/2000/svg">
<path d="M16.8793 11.3814V14.7892H19.9174C20.1369 14.7892 20.2986 14.9855 20.2524 15.205L19.8135 17.3999C19.7788 17.5616 19.6402 17.6771 19.4785 17.6771H16.8793V26.0521H13.4138V17.6771H11.45C11.2536 17.6771 11.1035 17.5269 11.1035 17.3306V15.1357C11.1035 14.9393 11.2536 14.7892 11.45 14.7892H13.4138V11.0349C13.4138 9.11727 14.9617 7.56934 16.8793 7.56934H19.9983C20.1947 7.56934 20.3448 7.71949 20.3448 7.91587V10.6883C20.3448 10.8847 20.1947 11.0349 19.9983 11.0349H17.2259C17.0295 11.0349 16.8793 11.185 16.8793 11.3814Z" stroke="#F7A58E" stroke-width="1.73276" stroke-miterlimit="10" stroke-linecap="round"/>
<path d="M3.01727 15.4592V17.966C3.01727 23.7418 5.32762 26.0522 11.1035 26.0522H18.0345C23.8104 26.0522 26.1207 23.7418 26.1207 17.966V11.0349C26.1207 5.25908 23.8104 2.94873 18.0345 2.94873H11.1035C5.32762 2.94873 3.01727 5.25908 3.01727 11.0349" stroke="#F7A58E" stroke-width="1.73276" stroke-linecap="round" stroke-linejoin="round"/>
</svg>
