<svg width="62" height="16" viewBox="0 0 62 16" fill="none" xmlns="http://www.w3.org/2000/svg">
<path d="M58.3004 4.6462C57.1729 4.6462 56.7058 5.50769 56.7058 6.32935C56.7058 7.19117 57.165 7.98057 58.2763 7.98057C59.4042 7.98057 59.8713 7.11875 59.8713 6.29742C59.8709 5.4356 59.1945 4.6462 58.3004 4.6462ZM58.2842 7.78734C57.6802 7.78734 57.3177 6.96567 57.3177 6.36161C57.3177 5.46753 57.6881 4.83943 58.2921 4.83943C58.8962 4.83943 59.259 5.66109 59.259 6.28129C59.259 7.15924 58.8886 7.78734 58.2842 7.78734ZM53.0165 7.07859C53.0165 7.46572 52.9277 7.63426 52.7104 7.67508C52.6623 7.68265 52.5896 7.71524 52.5896 7.77943C52.5896 7.86832 52.791 7.86832 52.8473 7.86832C53.008 7.86832 53.1696 7.83606 53.4109 7.83606C53.6045 7.83606 53.9109 7.86832 53.9913 7.86832C53.9988 7.86832 53.9913 7.86832 53.9913 7.86832C54.0716 7.86832 54.1684 7.86009 54.1684 7.77943C54.1684 7.69088 54.0311 7.69088 53.9271 7.67508C53.5725 7.61846 53.5643 7.47362 53.5643 7.19183V5.94354C53.5643 5.74997 53.5643 5.56497 53.5804 5.36317C53.5883 5.27462 53.9676 4.98493 54.4666 4.98493C55.1029 4.98493 55.1434 5.53271 55.1434 5.85498V7.19249C55.1434 7.61912 54.9739 7.62702 54.7487 7.67574C54.7082 7.68331 54.6355 7.708 54.6355 7.78832C54.6355 7.86075 54.7 7.86897 54.7968 7.86897C54.9739 7.86897 55.151 7.83671 55.3847 7.83671C55.5539 7.83671 55.7956 7.86897 56.029 7.86897C56.1419 7.86897 56.1982 7.86075 56.1982 7.78009C56.1982 7.69944 56.029 7.69154 55.9164 7.67574C55.6994 7.64315 55.6909 7.50654 55.6909 7.3212V5.81482C55.6909 5.45238 55.683 4.64718 54.6036 4.64718C54.1687 4.64718 53.9109 4.82429 53.5804 5.06591V4.64718C53.5804 4.57443 53.5399 4.54217 53.5001 4.54217C53.4198 4.54217 53.1703 4.79993 52.9849 4.96946C52.7917 5.14624 52.6709 5.1548 52.6709 5.23545C52.6709 5.39642 53.0175 5.23545 53.0175 5.68644V7.07925H53.0165V7.07859ZM51.0434 2.87416C50.8666 2.87416 50.6971 3.04336 50.6971 3.22047C50.6971 3.39757 50.8666 3.56678 51.0434 3.56678C51.2208 3.56678 51.39 3.39757 51.39 3.22047C51.39 3.04336 51.2208 2.87416 51.0434 2.87416ZM51.3173 5.11332C51.3173 4.97637 51.3495 4.83943 51.3495 4.70249C51.3495 4.65443 51.3251 4.6462 51.2929 4.6462C51.2369 4.6462 51.204 4.71039 50.81 4.96847C50.6003 5.10509 50.3827 5.08106 50.3827 5.18541C50.3827 5.34671 50.7695 5.218 50.7695 5.49979V7.22343C50.7695 7.53748 50.6487 7.61023 50.3261 7.67475C50.2056 7.69878 50.1812 7.74717 50.1812 7.77911C50.1812 7.86799 50.2701 7.86799 50.3343 7.86799C50.5601 7.86799 50.7777 7.83573 51.0029 7.83573C51.2126 7.83573 51.4137 7.86799 51.6234 7.86799C51.6958 7.86799 51.8245 7.86799 51.8245 7.77911C51.8245 7.69878 51.7037 7.69878 51.6392 7.67475C51.4377 7.602 51.3169 7.61813 51.3169 7.37651V5.11332H51.3173ZM46.8389 6.4021C46.8389 7.15891 47.3383 7.98057 48.3453 7.98057C48.8931 7.98057 49.3842 7.64249 49.3842 7.50555C49.3842 7.45749 49.3517 7.44136 49.3358 7.44136C49.2394 7.44136 49.1104 7.62669 48.611 7.62669C47.9664 7.62669 47.3867 7.29651 47.3867 6.3942C47.3867 5.28285 48.0793 4.83976 48.4661 4.83976C48.8931 4.83976 48.9329 5.25849 49.2634 5.25849C49.4004 5.25849 49.4893 5.19397 49.4893 5.04847C49.4893 4.70216 48.9092 4.64587 48.6439 4.64587C47.4104 4.6462 46.8389 5.54818 46.8389 6.4021ZM43.5444 6.4021C43.5444 7.15891 44.0441 7.98057 45.0508 7.98057C45.5985 7.98057 46.0897 7.64249 46.0897 7.50555C46.0897 7.45749 46.0574 7.44136 46.0416 7.44136C45.9452 7.44136 45.8158 7.62669 45.3168 7.62669C44.6722 7.62669 44.0922 7.29651 44.0922 6.3942C44.0922 5.28285 44.7848 4.83976 45.1716 4.83976C45.5985 4.83976 45.6384 5.25849 45.9689 5.25849C46.1058 5.25849 46.195 5.19397 46.195 5.04847C46.195 4.70216 45.6147 4.64587 45.3493 4.64587C44.1169 4.6462 43.5444 5.54818 43.5444 6.4021ZM40.7255 7.98057C41.3777 7.98057 41.7243 7.50555 41.853 7.50555C41.8935 7.50555 41.9096 7.53814 41.9096 7.60233V7.78766C41.9096 7.86009 41.9096 7.91671 41.9738 7.91671C42.0466 7.91671 42.3771 7.84429 42.941 7.75606C43.0618 7.73993 43.1016 7.72347 43.1016 7.65928C43.1016 7.57863 42.9976 7.57863 42.6832 7.57863C42.6108 7.57863 42.4732 7.5546 42.4732 7.38539C42.4732 6.57163 42.5058 5.75853 42.5058 4.94477C42.5058 4.79993 42.3929 4.77524 42.3363 4.77524C42.1756 4.77524 42.0225 4.7917 41.8612 4.7917C41.7246 4.7917 41.5877 4.77524 41.4504 4.77524C41.3615 4.77524 41.2733 4.7917 41.2733 4.83976C41.2733 4.90428 41.4428 4.95267 41.5067 4.96913C41.8849 5.06558 41.9254 5.06558 41.9254 5.16237C41.9254 5.73384 41.9093 6.31421 41.9093 6.88568C41.9014 7.21586 41.8366 7.59443 40.9425 7.59443C40.5481 7.59443 40.3061 7.40909 40.3061 7.07892C40.3061 6.36194 40.3223 5.64562 40.3223 4.92864C40.3223 4.81573 40.3061 4.77524 40.2015 4.77524C40.0806 4.77524 39.9598 4.7917 39.8469 4.7917C39.7264 4.7917 39.6135 4.77524 39.5009 4.77524C39.388 4.77524 39.2995 4.77524 39.2995 4.84799C39.2995 4.90428 39.3475 4.92041 39.5411 4.96847C39.6376 4.9925 39.7745 5.00863 39.7745 5.12188C39.7745 5.59657 39.7584 6.34614 39.7584 6.83729C39.7587 7.52168 39.9684 7.98057 40.7255 7.98057ZM36.1587 5.45963C36.1587 5.22623 36.7143 5.17817 36.7871 5.17817C37.8421 5.17817 38.2369 5.93531 38.2369 6.47452C38.2369 7.27182 37.665 7.71524 37.0287 7.71524C36.7785 7.71524 36.1583 7.51378 36.1583 7.15957V5.45963H36.1587ZM35.6109 9.04386C35.6109 9.36614 35.3614 9.38194 35.0634 9.4142C34.9907 9.42177 34.9505 9.44646 34.9505 9.50275C34.9505 9.59953 35.0549 9.60743 35.1276 9.60743C35.394 9.60743 35.6514 9.5834 35.917 9.5834C36.2229 9.5834 36.3917 9.60743 36.5935 9.60743C36.771 9.60743 36.8674 9.59953 36.8674 9.51065C36.8674 9.43 36.7947 9.42177 36.6903 9.4142C36.2956 9.38161 36.1827 9.35001 36.1827 9.18837V7.79524C36.1827 7.74685 36.2071 7.71458 36.2633 7.71458C36.3279 7.71458 36.5046 7.90782 37.0771 7.90782C38.0114 7.90782 38.7366 7.19084 38.7366 6.26483C38.7366 6.07159 38.6641 4.87136 37.2545 4.87136C36.6426 4.87136 36.3526 5.13768 36.2396 5.13768C36.1916 5.13768 36.1916 5.05703 36.1916 4.99283C36.1916 4.84832 36.2314 4.72685 36.2314 4.63039C36.2314 4.5741 36.2077 4.51781 36.1429 4.51781C36.0385 4.51781 35.9901 4.66233 35.7646 4.77524C35.5388 4.88848 35.1527 4.92864 35.1527 5.04913C35.1527 5.16994 35.4183 5.12221 35.5312 5.20253C35.5793 5.23479 35.6116 5.28285 35.6116 5.42802V9.04419H35.6109V9.04386ZM31.9704 5.45963C31.9704 5.22623 32.526 5.17817 32.5981 5.17817C33.6539 5.17817 34.0479 5.93531 34.0479 6.47452C34.0479 7.27182 33.4764 7.71524 32.8398 7.71524C32.5899 7.71524 31.97 7.51378 31.97 7.15957V5.45963H31.9704ZM31.4226 9.04386C31.4226 9.36614 31.1727 9.38194 30.8752 9.4142C30.8027 9.42177 30.7622 9.44646 30.7622 9.50275C30.7622 9.59953 30.8669 9.60743 30.9393 9.60743C31.2053 9.60743 31.4628 9.5834 31.7287 9.5834C32.0352 9.5834 32.2041 9.60743 32.4056 9.60743C32.583 9.60743 32.6794 9.59953 32.6794 9.51065C32.6794 9.43 32.607 9.42177 32.502 9.4142C32.1076 9.38161 31.9947 9.35001 31.9947 9.18837V7.79524C31.9947 7.74685 32.0191 7.71458 32.0757 7.71458C32.1399 7.71458 32.317 7.90782 32.8891 7.90782C33.8234 7.90782 34.5486 7.19084 34.5486 6.26483C34.5486 6.07159 34.4758 4.87136 33.0666 4.87136C32.4546 4.87136 32.1643 5.13768 32.0517 5.13768C32.0033 5.13768 32.0033 5.05703 32.0033 4.99283C32.0033 4.84832 32.0438 4.72685 32.0438 4.63039C32.0438 4.5741 32.0194 4.51781 31.9549 4.51781C31.8502 4.51781 31.8018 4.66233 31.5763 4.77524C31.3505 4.88848 30.9644 4.92864 30.9644 5.04913C30.9644 5.16994 31.2303 5.12221 31.3426 5.20253C31.391 5.23479 31.4233 5.28285 31.4233 5.42802L31.4226 9.04386ZM29.3767 6.83696C29.3767 7.11842 29.1913 7.54538 28.692 7.54538C28.4019 7.54538 28.2571 7.31198 28.2571 7.11085C28.2571 6.41 29.2315 6.1845 29.272 6.1845C29.3201 6.1845 29.3767 6.20854 29.3767 6.46629V6.83696ZM29.9004 5.40333C29.9004 5.20253 29.9004 4.69492 29.1354 4.69492C28.1685 4.69492 27.6372 5.51625 27.6372 5.67722C27.6372 5.77367 27.6613 5.87046 27.8143 5.87046C28.3542 5.87046 28.0402 4.93621 28.8859 4.93621C29.3852 4.93621 29.401 5.25026 29.401 5.73351C29.401 5.82997 29.377 5.91062 29.3609 5.97514C29.1917 6.01563 29.0307 6.07982 28.7647 6.1766C28.7002 6.20064 27.6613 6.49888 27.6613 7.32054C27.6613 7.73137 27.9595 7.91671 28.2815 7.91671C28.8131 7.91671 28.9902 7.70734 29.3043 7.46605C29.3928 7.57863 29.5702 7.83639 29.9165 7.83639C30.3754 7.83639 30.593 7.43313 30.593 7.3528C30.593 7.30474 30.5446 7.28038 30.5042 7.28038C30.3833 7.28038 30.3833 7.43345 30.1578 7.43345C29.9406 7.43345 29.9004 7.29651 29.9004 7.1757V5.40333ZM22.595 5.4435C22.595 7.04633 23.948 7.98057 25.4544 7.98057C26.1871 7.98057 26.8396 7.73104 26.888 7.61023C26.9282 7.52135 27.0407 7.28005 27.0407 6.86165C27.0407 6.82906 26.9844 6.79713 26.9443 6.79713C26.8636 6.79713 26.7912 6.94164 26.6059 7.17537C26.4126 7.417 26.0983 7.73894 25.3977 7.73894C24.1251 7.73894 23.4486 6.61147 23.4486 5.49979C23.4486 3.99341 24.4474 3.03546 25.4623 3.03546C26.5335 3.03546 26.6464 3.80873 26.8959 3.80873C26.9522 3.80873 26.9522 3.7847 26.9522 3.71195C26.9522 3.02723 26.9443 2.9953 26.2355 2.87449C25.9455 2.81787 25.559 2.79351 25.4465 2.79351C23.5052 2.79351 22.595 4.13068 22.595 5.4435ZM19.1718 3.4058C19.1718 3.20467 19.1879 3.0111 19.1879 2.82544C19.1879 2.76915 19.1879 2.66479 19.1155 2.66479C19.0674 2.66479 19.0029 2.68093 18.9545 2.69706L18.3024 2.92288C18.2619 2.93934 18.2378 2.97917 18.2378 3.01176C18.2378 3.07628 18.6243 3.13258 18.6243 3.30968V7.08715C18.6243 7.5704 18.4874 7.59476 18.1977 7.67541C18.1414 7.69154 18.0285 7.68298 18.0285 7.77976C18.0285 7.83638 18.0848 7.86865 18.1414 7.86865C18.4153 7.86865 18.6971 7.83639 18.9709 7.83639C19.2126 7.83639 19.4624 7.86865 19.7041 7.86865C19.7521 7.86865 19.8005 7.83638 19.8005 7.76396C19.8005 7.69154 19.7442 7.69154 19.6797 7.67541C19.3255 7.58653 19.1724 7.5546 19.1724 7.35313V3.4058H19.1718ZM16.0708 5.72561C15.3861 5.72561 15.3699 5.70948 15.3699 5.65286C15.3699 5.40301 15.7162 4.83943 16.2959 4.83943C16.6343 4.83943 16.8921 5.05703 16.8921 5.33091C16.8924 5.6206 16.7795 5.72561 16.0708 5.72561ZM17.2628 5.96691C17.3997 5.96691 17.4237 5.92642 17.4237 5.78157C17.4237 5.43527 17.1097 4.64587 16.1834 4.64587C15.1843 4.64587 14.7175 5.58801 14.7175 6.34515C14.7175 7.35214 15.2248 7.98024 16.1109 7.98024C16.9484 7.98024 17.2868 7.39231 17.2868 7.33601C17.2868 7.29552 17.2545 7.27149 17.2144 7.27149C17.0853 7.27149 17.0695 7.59377 16.449 7.59377C15.4664 7.59377 15.281 6.92518 15.281 6.2487C15.281 6.11932 15.281 6.0153 15.2972 5.96691H17.2628ZM13.9686 5.14558C14.0976 5.14558 14.1055 5.07316 14.1055 4.9688C14.1055 4.8075 14.041 4.79137 13.9607 4.79137H13.0909C12.978 4.79137 12.9619 4.75878 12.9619 4.68669V4.38877C12.9619 4.30022 12.9619 4.23569 12.8651 4.23569C12.7446 4.23569 12.8092 4.37264 12.5027 4.71072C12.3012 4.93621 11.9147 5.00073 11.9147 5.12912C11.9147 5.17718 11.9549 5.19364 11.9793 5.19364H12.1564C12.2933 5.19364 12.3338 5.21767 12.3338 5.33058C12.3338 5.95868 12.3177 6.51468 12.3177 7.07036C12.3177 7.67442 12.5998 7.90025 13.2035 7.90025C13.7918 7.90025 14.0252 7.61846 14.0252 7.53748C14.0252 7.48119 13.9933 7.45716 13.9366 7.45716C13.7757 7.45716 13.7757 7.54571 13.4372 7.54571C13.0103 7.54571 12.8816 7.35247 12.8816 7.02197C12.8816 6.57097 12.9056 5.90272 12.9056 5.46753C12.9056 5.20977 12.9296 5.14525 13.1551 5.14525L13.9686 5.14558ZM9.73187 4.6462C8.60439 4.6462 8.13727 5.50769 8.13727 6.32935C8.13727 7.19117 8.59616 7.98057 9.70784 7.98057C10.8357 7.98057 11.3028 7.11875 11.3028 6.29742C11.3028 5.4356 10.626 4.6462 9.73187 4.6462ZM9.71607 7.78734C9.11234 7.78734 8.74957 6.96567 8.74957 6.36161C8.74957 5.46753 9.12024 4.83943 9.7243 4.83943C10.3284 4.83943 10.6908 5.66109 10.6908 6.28129C10.6905 7.15924 10.3201 7.78734 9.71607 7.78734ZM3.20007 3.50259C3.20007 3.26886 3.31265 3.18031 3.48975 3.16418C3.66719 3.14805 3.86042 3.15628 3.86042 3.01933C3.86042 2.93078 3.81203 2.90642 3.62703 2.90642C3.32911 2.90642 3.03086 2.93901 2.73294 2.93901C2.49132 2.93901 2.25759 2.90642 2.01597 2.90642C1.92708 2.90642 1.83853 2.92255 1.83853 3.0111C1.83853 3.13192 1.93531 3.14805 2.03177 3.16418C2.47486 3.2366 2.50679 3.24483 2.50679 3.55888V7.25569C2.50679 7.52958 2.31356 7.56217 2.08806 7.61023C1.94322 7.64249 1.73352 7.65039 1.73352 7.77943C1.73352 7.86832 1.88659 7.86832 1.94289 7.86832C2.01531 7.86832 2.17628 7.83606 2.90939 7.83606C3.35248 7.83606 3.60201 7.86832 3.76331 7.86832C3.8275 7.86832 3.94042 7.85219 3.94042 7.76363C3.94042 7.64282 3.76331 7.62669 3.67443 7.61056C3.37651 7.55427 3.19941 7.50621 3.19941 7.30441V5.68545C3.19941 5.54061 3.29586 5.49222 3.8759 5.49222H5.66406C6.00214 5.49979 6.05876 5.51592 6.05876 5.69335V6.9581C6.05876 7.47329 5.97811 7.5862 5.64003 7.61023C5.4626 7.61813 5.27726 7.64249 5.27726 7.7633C5.27726 7.85219 5.36581 7.86799 5.43857 7.86799C5.52712 7.86799 5.69632 7.83573 6.33232 7.83573C6.92848 7.83573 7.12962 7.86799 7.2343 7.86799C7.32318 7.86799 7.46803 7.85976 7.46803 7.7554C7.46803 7.62603 7.29882 7.61813 7.10559 7.61056C6.88799 7.60266 6.75105 7.52991 6.75105 7.30441V3.49436C6.75105 3.26886 6.86396 3.17208 7.00881 3.16418C7.35512 3.13192 7.47593 3.14015 7.47593 3.01933C7.47593 2.90642 7.32285 2.90642 7.24253 2.90642C7.0414 2.90642 6.70299 2.93901 6.4291 2.93901C6.14731 2.93901 5.92182 2.90642 5.66406 2.90642C5.55115 2.90642 5.43034 2.90642 5.43034 3.04369C5.43034 3.13258 5.52712 3.14838 5.64003 3.16451C6.05876 3.23693 6.05876 3.27709 6.05876 3.57534V5.10575C6.05876 5.2022 6.01037 5.21833 5.58341 5.21833H3.40087C3.23167 5.21833 3.19941 5.15381 3.19941 4.95234V3.50259H3.20007Z" fill="#EB5F36"/>
<path d="M25.1844 11.4749L25.0077 12.2636L24.2025 12.1882L24.8984 12.6L24.5777 13.3424L25.1844 12.8077L25.7911 13.3424L25.4702 12.6L26.1661 12.1882L25.3612 12.2636L25.1844 11.4749Z" fill="#EB5F36"/>
<path d="M27.9895 11.4749L27.8127 12.2636L27.0075 12.1882L27.7034 12.6L27.3828 13.3424L27.9895 12.8077L28.5962 13.3424L28.2752 12.6L28.9711 12.1882L28.1663 12.2636L27.9895 11.4749Z" fill="#EB5F36"/>
<path d="M30.7941 11.4749L30.6177 12.2636L29.8125 12.1882L30.5084 12.6L30.1874 13.3424L30.7941 12.8077L31.4012 13.3424L31.0802 12.6L31.7758 12.1882L30.9713 12.2636L30.7941 11.4749Z" fill="#EB5F36"/>
<path d="M36.4046 11.4749L36.2275 12.2636L35.4226 12.1882L36.1185 12.6L35.7976 13.3424L36.4046 12.8077L37.0116 13.3424L36.6903 12.6L37.3862 12.1882L36.5814 12.2636L36.4046 11.4749Z" fill="#EB5F36"/>
<path d="M33.5992 11.4749L33.4224 12.2636L32.6176 12.1882L33.3135 12.6L32.9925 13.3424L33.5992 12.8077L34.2062 13.3424L33.8856 12.6L34.5812 12.1882L33.7763 12.2636L33.5992 11.4749Z" fill="#EB5F36"/>
</svg>
