<svg width="29" height="29" viewBox="0 0 29 29" fill="none" xmlns="http://www.w3.org/2000/svg">
<path d="M2.94824 15.6903V17.966C2.94824 23.7418 5.25859 26.0522 11.0344 26.0522H17.9655C23.7413 26.0522 26.0517 23.7418 26.0517 17.966V11.0349C26.0517 5.25908 23.7413 2.94873 17.9655 2.94873H11.0344C5.25859 2.94873 2.94824 5.25908 2.94824 11.0349" stroke="#F7A58E" stroke-width="1.73276" stroke-linecap="round" stroke-linejoin="round"/>
<path d="M14.5 18.5432C16.7329 18.5432 18.5431 16.7331 18.5431 14.5001C18.5431 12.2672 16.7329 10.457 14.5 10.457C12.267 10.457 10.4569 12.2672 10.4569 14.5001C10.4569 16.7331 12.267 18.5432 14.5 18.5432Z" stroke="#F7A58E" stroke-width="1.73276" stroke-linecap="round" stroke-linejoin="round"/>
<path d="M21.0107 8.72456H21.024" stroke="#F7A58E" stroke-width="2.31034" stroke-linecap="round" stroke-linejoin="round"/>
</svg>
