<svg width="16" height="19" viewBox="0 0 16 19" fill="none" xmlns="http://www.w3.org/2000/svg">
<path fill-rule="evenodd" clip-rule="evenodd" d="M3.52142 5.14649C3.32616 5.34175 3.32616 5.65833 3.52142 5.85359C3.71669 6.04886 4.03327 6.04886 4.22853 5.85359L7.60576 2.47636L7.5 13.3701C7.49732 13.6463 7.71899 13.8723 7.99512 13.875C8.27125 13.8777 8.49727 13.656 8.49995 13.3798L8.60603 2.45292L12.0067 5.85359C12.202 6.04886 12.5185 6.04886 12.7138 5.85359C12.9091 5.65833 12.9091 5.34175 12.7138 5.14649L8.47117 0.903846L8.11762 0.550293L7.76406 0.903846L3.52142 5.14649ZM1 10C1 9.72388 0.776142 9.50002 0.5 9.50002C0.223858 9.50002 0 9.72388 0 10V14.25C0 16.7353 2.01472 18.75 4.5 18.75H11.5C13.9853 18.75 16 16.7353 16 14.25V10C16 9.72388 15.7761 9.50002 15.5 9.50002C15.2239 9.50002 15 9.72388 15 10V14.25C15 16.183 13.433 17.75 11.5 17.75H4.5C2.567 17.75 1 16.183 1 14.25V10Z" fill="black"/>
</svg>
