<svg width="18" height="18" viewBox="0 0 18 18" fill="none" xmlns="http://www.w3.org/2000/svg">
<path d="M8.77613 10.3632C7.21837 10.3632 5.94583 9.09802 5.94583 7.53295C5.94583 5.96787 7.21837 4.70996 8.77613 4.70996C10.3339 4.70996 11.6064 5.97519 11.6064 7.54026C11.6064 9.10533 10.3339 10.3632 8.77613 10.3632ZM8.77613 5.80698C7.82538 5.80698 7.04285 6.5822 7.04285 7.54026C7.04285 8.49832 7.81807 9.27354 8.77613 9.27354C9.73419 9.27354 10.5094 8.49832 10.5094 7.54026C10.5094 6.5822 9.72688 5.80698 8.77613 5.80698Z" fill="white"/>
<path d="M8.77612 16.6453C7.69373 16.6453 6.60403 16.2357 5.75567 15.4239C3.59821 13.3469 1.21403 10.0339 2.11359 6.09197C2.92538 2.5157 6.04821 0.914062 8.77612 0.914062C8.77612 0.914062 8.77612 0.914062 8.78344 0.914062C11.5113 0.914062 14.6342 2.5157 15.446 6.09929C16.3382 10.0412 13.954 13.3469 11.7966 15.4239C10.9482 16.2357 9.85851 16.6453 8.77612 16.6453ZM8.77612 2.01108C6.64791 2.01108 3.91269 3.14466 3.18866 6.33332C2.39881 9.77794 4.56359 12.7472 6.52358 14.6267C7.78881 15.8481 9.77075 15.8481 11.036 14.6267C12.9887 12.7472 15.1534 9.77794 14.3782 6.33332C13.6469 3.14466 10.9043 2.01108 8.77612 2.01108Z" fill="white"/>
</svg>
