<svg width="29" height="29" viewBox="0 0 29 29" fill="none" xmlns="http://www.w3.org/2000/svg">
<path fill-rule="evenodd" clip-rule="evenodd" d="M20.7374 18.3241C20.4024 18.5089 20.1252 18.5898 19.8942 18.6475C19.6978 18.6937 19.5361 18.7399 19.3974 18.8323C19.2473 18.9248 19.2357 19.0749 19.2126 19.2135C19.1895 19.3406 19.178 19.4446 19.0856 19.5139C18.9816 19.5832 18.7852 19.5948 18.5195 19.6063C18.173 19.6294 17.734 19.641 17.2026 19.8027C16.9485 19.8951 16.7174 20.0337 16.4864 20.1724C16.0243 20.4611 15.5045 20.773 14.5919 20.773C13.6909 20.773 13.171 20.4611 12.709 20.1724C12.4779 20.0222 12.2469 19.8835 11.9812 19.7911C11.4614 19.6294 11.0109 19.6063 10.6643 19.5948C10.3986 19.5832 10.2138 19.5716 10.0983 19.5023C10.0059 19.4446 9.99433 19.3291 9.97122 19.202C9.94812 19.0634 9.93656 18.9132 9.78639 18.8208C9.64777 18.7284 9.4745 18.6822 9.28968 18.6244C9.05864 18.5667 8.78142 18.4973 8.44642 18.3125C8.05366 18.093 8.2847 17.966 8.41177 17.8967C10.6413 16.8223 10.9878 15.1589 10.9993 15.0318C10.9993 15.0203 10.9993 15.0203 10.9993 15.0087C11.0224 14.8701 11.034 14.7546 10.8723 14.6044C10.7683 14.5004 10.4102 14.2694 10.1214 14.0846C9.99433 13.9922 9.87883 13.9229 9.80952 13.8882C9.48607 13.6572 9.34745 13.4377 9.45142 13.1489C9.52073 12.9525 9.70556 12.8832 9.89039 12.8832C9.94815 12.8832 10.0175 12.8948 10.0637 12.9063C10.2716 12.9525 10.4795 13.0334 10.6643 13.1027C10.7914 13.1605 10.8954 13.1951 10.9762 13.2182C10.9993 13.2298 11.034 13.2298 11.0456 13.2298C11.1611 13.2298 11.1957 13.172 11.1842 13.0565C11.1842 13.0218 11.1842 12.9872 11.1726 12.9525C11.1495 12.5482 11.1148 11.8436 11.1611 11.1967C11.2535 10.2263 11.5654 9.7296 11.935 9.31374C12.1199 9.10581 12.9631 8.21631 14.5688 8.21631C16.1745 8.21631 17.0178 9.10579 17.2026 9.30217C17.5723 9.72959 17.8842 10.2148 17.9766 11.1967C18.0344 11.8782 17.9881 12.606 17.9535 13.0103V13.0449C17.9419 13.172 17.9766 13.2182 18.0921 13.2182C18.1152 13.2182 18.1383 13.2182 18.1614 13.2067C18.2423 13.1836 18.3462 13.1489 18.4733 13.1027C18.6466 13.0334 18.8545 12.9525 19.074 12.9063C19.1317 12.8832 19.1895 12.8832 19.2473 12.8832C19.4436 12.8832 19.6169 12.9641 19.6862 13.1604C19.7902 13.4377 19.6516 13.6572 19.3281 13.8882C19.2704 13.9344 19.1549 14.0153 19.0162 14.0846C18.739 14.2694 18.3694 14.5004 18.2654 14.6044C18.1037 14.7546 18.1152 14.8701 18.1383 15.0087C18.1383 15.0203 18.1383 15.0318 18.1383 15.0318C18.1614 15.1589 18.5079 16.8223 20.7259 17.8967C20.8992 17.966 21.1302 18.1046 20.7374 18.3241Z" stroke="#F7A58E" stroke-width="1.73276" stroke-miterlimit="10" stroke-linejoin="round"/>
<path d="M5.3621 7.56942C3.91814 9.49856 3.05176 11.9013 3.05176 14.5005C3.05176 20.877 8.22693 26.0522 14.6035 26.0522C20.98 26.0522 26.1552 20.877 26.1552 14.5005C26.1552 8.1239 20.98 2.94873 14.6035 2.94873C12.9516 2.94873 11.369 3.29529 9.94814 3.93063" stroke="#F7A58E" stroke-width="1.73276" stroke-linecap="round" stroke-linejoin="round"/>
</svg>
