<svg width="24" height="20" viewBox="0 0 24 20" fill="none" xmlns="http://www.w3.org/2000/svg">
<path d="M22.6709 17.6799H14.88V19.5999H22.7505C22.924 19.6084 23.0952 19.5571 23.2353 19.4544C23.3754 19.3517 23.4759 19.2039 23.52 19.0359V18.5703C23.52 18.5703 23.5142 17.6799 22.6709 17.6799ZM21.5933 17.3007C22.1047 17.2999 22.5949 17.0962 22.9562 16.7342C23.3174 16.3722 23.5202 15.8816 23.52 15.3701C23.52 14.3012 22.656 13.4391 21.5933 13.4391C21.3402 13.4395 21.0897 13.4899 20.856 13.5872C20.6224 13.6845 20.4103 13.8268 20.2317 14.0062C20.0531 14.1855 19.9116 14.3983 19.8153 14.6323C19.719 14.8663 19.6698 15.1171 19.6704 15.3701C19.6704 16.4353 20.532 17.3007 21.5933 17.3007ZM17.5353 17.1999C18.5462 17.1999 19.3593 16.4876 19.3593 15.4781C19.3589 14.4706 18.5429 13.9421 17.5397 13.9345L14.88 14.2714V17.1999H17.5353ZM8.89102 4.68774C10.0713 4.68774 11.0261 3.72774 11.0261 2.54358C11.0261 1.35942 10.0713 0.399902 8.89102 0.399902C7.71166 0.399902 6.7555 1.35942 6.7555 2.54358C6.7555 3.72774 7.71166 4.68774 8.89102 4.68774ZM6.71086 11.6266L6.69166 11.5988L5.72398 9.34566L5.72254 13.8399H8.61454L9.24622 13.1679L7.5331 12.5084C7.12702 12.3557 6.83854 12.0101 6.71086 11.6266ZM7.32382 11.4245C7.41742 11.6348 7.5907 11.8052 7.80862 11.8834L11.1096 13.1069C11.2101 13.1512 11.3185 13.1752 11.4283 13.1774C11.5382 13.1797 11.6474 13.1603 11.7497 13.1202C11.852 13.0802 11.9454 13.0203 12.0245 12.944C12.1036 12.8678 12.1669 12.7767 12.2107 12.6759C12.3001 12.4717 12.305 12.2404 12.2244 12.0326C12.1438 11.8247 11.9843 11.6572 11.7806 11.5666L8.73502 10.4165L7.79422 8.16006L8.40766 7.93158L9.20494 9.86502L11.52 10.7233V8.3607L12.7488 9.09174L13.3613 12.1772C13.3965 12.2816 13.4521 12.3779 13.5249 12.4607C13.5976 12.5435 13.6861 12.611 13.7851 12.6594C13.8841 12.7078 13.9917 12.7361 14.1017 12.7426C14.2117 12.7491 14.3219 12.7338 14.4259 12.6975C14.6354 12.623 14.8071 12.4688 14.9037 12.2685C15.0003 12.0682 15.014 11.8379 14.9419 11.6276L14.2555 8.6559C14.2105 8.49139 14.1164 8.34453 13.9857 8.23494C13.6339 7.84518 11.8545 5.85558 11.7278 5.72262C11.5421 5.53638 11.1173 5.1999 10.3147 5.1999H7.4347C5.7979 5.1999 5.48302 6.8703 5.81758 7.7199L7.32382 11.4245ZM14.4 14.3199H1.42414C0.95182 14.3199 0.47998 14.5863 0.47998 15.1724V19.5999H14.4V14.3199Z" fill="white"/>
</svg>
